<?xml version="1.0" standalone="no"?>
<!DOCTYPE svg PUBLIC "-//W3C//DTD SVG 20010904//EN"
 "http://www.w3.org/TR/2001/REC-SVG-20010904/DTD/svg10.dtd">
<svg version="1.0" xmlns="http://www.w3.org/2000/svg"
 width="200.000000pt" height="200.000000pt" viewBox="0 0 200.000000 200.000000"
 preserveAspectRatio="xMidYMid meet">
<metadata>
Created by potrace 1.11, written by Peter Selinger 2001-2013
</metadata>
<g transform="translate(0.000000,200.000000) scale(0.100000,-0.100000)"
fill="#000000" stroke="none">
<path d="M944 1686 c-3 -8 -1 -24 5 -35 9 -16 23 -21 74 -23 54 -3 62 -5 62
-23 0 -19 -8 -20 -120 -25 -66 -3 -126 -9 -132 -13 -15 -9 -17 -53 -4 -62 5
-3 16 2 24 10 11 11 38 15 99 15 137 1 188 21 188 75 0 41 -35 65 -96 65 -39
0 -56 4 -60 15 -8 19 -33 20 -40 1z"/>
<path d="M732 1448 c-7 -7 -12 -22 -12 -35 l0 -23 241 0 240 0 -3 33 -3 32
-225 3 c-167 2 -229 -1 -238 -10z"/>
<path d="M1247 1396 c-7 -17 1 -26 23 -26 10 0 23 -6 29 -14 15 -18 -8 -80
-36 -94 -21 -12 -28 -52 -9 -52 7 0 25 9 40 21 78 61 73 179 -8 179 -20 0 -36
-6 -39 -14z"/>
<path d="M720 1305 c0 -48 35 -63 92 -40 83 33 138 8 138 -63 0 -21 -9 -55
-20 -77 -11 -22 -20 -41 -20 -42 0 -2 35 -3 78 -3 92 0 148 22 183 71 19 27
25 49 28 112 l3 77 -241 0 -241 0 0 -35z"/>
<path d="M640 1198 c0 -91 99 -144 195 -104 40 17 62 49 67 96 3 33 1 35 -29
38 -33 3 -93 -21 -93 -38 0 -5 -16 2 -36 15 -21 14 -51 25 -70 25 -32 0 -34
-2 -34 -32z"/>
<path d="M613 1033 c-45 -4 -53 -16 -29 -42 8 -9 26 -28 40 -43 l25 -28 314 0
c301 0 314 1 335 20 12 12 22 27 22 35 0 8 7 15 16 15 10 0 14 7 12 23 l-3 22
-345 1 c-190 0 -364 -1 -387 -3z"/>
<path d="M719 784 c-15 -18 -30 -217 -17 -222 5 -2 8 -10 8 -17 0 -19 37 -37
60 -30 10 3 22 15 25 26 6 19 8 19 37 -6 16 -14 38 -25 47 -25 27 0 84 21 103
37 15 13 17 12 20 -9 2 -15 10 -23 23 -23 17 0 20 8 23 55 5 87 42 115 42 31
0 -64 25 -97 64 -87 28 7 62 64 53 89 -2 7 -7 -2 -11 -20 -8 -35 -30 -58 -46
-48 -5 3 -10 28 -10 54 0 26 -5 52 -12 59 -15 15 -65 16 -74 1 -5 -8 -9 -7
-14 1 -15 24 -40 2 -40 -34 0 -19 -9 -44 -20 -57 l-19 -24 -1 36 c0 19 -5 40
-12 47 -7 7 -8 12 -4 12 5 0 3 7 -4 15 -20 24 -83 19 -108 -8 -12 -13 -22 -30
-22 -38 0 -22 -39 -81 -50 -74 -16 10 -12 131 6 185 9 27 14 57 12 67 -4 24
-41 28 -59 7z m50 -16 c0 -13 -4 -32 -9 -43 -7 -15 -9 -10 -9 23 -1 23 4 42 9
42 6 0 10 -10 9 -22z m167 -129 c5 -9 -1 -10 -20 -5 -22 5 -28 2 -38 -19 -10
-22 -8 -30 10 -55 23 -30 13 -52 -13 -30 -18 15 -20 91 -3 108 15 15 55 16 64
1z m-24 -78 c-4 -11 -8 -10 -19 5 -16 22 -17 36 0 53 10 10 13 7 18 -16 3 -15
3 -34 1 -42z"/>
<path d="M183 774 c-50 -25 -78 -78 -78 -146 0 -66 22 -103 76 -130 65 -34
132 -19 170 38 10 16 19 23 19 17 0 -15 52 -43 80 -43 11 0 31 10 44 23 l23
23 22 -24 c16 -18 28 -23 46 -18 22 6 25 3 25 -21 0 -16 -7 -37 -15 -47 -19
-26 -19 -65 0 -72 26 -10 44 15 56 77 6 32 18 64 25 70 8 6 14 17 14 23 0 6
-7 2 -15 -8 -14 -18 -15 -15 -15 40 0 66 -10 90 -34 81 -12 -5 -16 -20 -16
-60 0 -35 -5 -59 -14 -66 -20 -17 -26 -2 -29 63 -2 31 -6 58 -10 62 -13 14
-37 -6 -37 -32 0 -34 -27 -91 -47 -98 -51 -20 -75 31 -31 64 38 28 36 64 -5
68 -37 4 -64 -20 -78 -71 -34 -127 -175 -130 -198 -5 -16 90 13 181 63 194 56
14 86 -14 37 -33 -52 -19 -51 -93 0 -93 29 0 59 36 59 70 0 17 5 30 12 30 7 0
-4 9 -25 20 -44 24 -81 25 -124 4z m127 -56 c0 -45 -63 -79 -77 -42 -8 21 7
46 37 61 29 14 40 9 40 -19z m148 -89 c-3 -23 -33 -48 -43 -37 -3 3 -3 17 1
32 8 33 47 38 42 5z m143 -242 c-8 -8 -11 -4 -11 14 0 33 14 47 18 19 2 -12
-1 -27 -7 -33z"/>
<path d="M1352 778 c-7 -7 -12 -22 -12 -34 0 -13 -7 -24 -17 -27 -17 -4 -17
-5 0 -6 15 -1 17 -12 17 -79 0 -84 16 -122 50 -122 10 0 27 11 37 24 l19 23
28 -23 c33 -29 65 -30 100 -3 l26 20 26 -20 c30 -23 54 -27 71 -10 8 8 17 8
32 -1 32 -16 61 -3 77 36 19 46 17 57 -4 14 -9 -19 -25 -36 -35 -38 -14 -3
-17 4 -18 42 -2 65 -2 66 -19 76 -40 25 -130 -7 -130 -46 0 -27 -29 -72 -50
-79 -46 -15 -69 43 -25 63 29 13 35 59 9 69 -36 13 -67 -10 -89 -67 -12 -33
-28 -56 -38 -58 -15 -3 -17 7 -17 87 0 85 1 90 23 94 22 4 22 4 0 6 -17 1 -22
8 -25 33 -3 35 -17 45 -36 26z m188 -146 c0 -19 -18 -42 -32 -42 -4 0 -8 14
-8 30 0 23 4 30 20 30 13 0 20 -7 20 -18z m185 12 c14 -6 14 -8 -4 -20 -14
-10 -19 -23 -16 -49 4 -41 -17 -64 -40 -45 -17 14 -20 72 -5 101 11 19 35 24
65 13z"/>
<path d="M1119 185 c0 -3 0 -41 0 -85 0 -44 0 -84 0 -90 1 -7 155 -10 441 -10
l440 0 0 95 0 95 -440 0 c-242 0 -440 -3 -441 -5z m592 -52 c19 -23 12 -54
-19 -79 l-26 -21 -28 20 c-30 22 -38 63 -16 85 18 18 73 15 89 -5z m54 -20 c0
-19 5 -27 14 -25 7 1 19 -3 27 -9 11 -9 14 -8 14 2 0 12 2 12 9 0 5 -8 11 -9
15 -3 9 15 -4 20 -41 17 -34 -2 -37 2 -27 29 8 21 24 20 25 -1 1 -17 2 -17 6
0 6 22 43 23 43 0 0 -15 1 -15 13 -1 8 10 26 16 51 15 l39 -2 0 -45 0 -45
-106 -1 -105 -1 -4 48 c-2 39 0 49 12 49 11 0 16 -9 15 -27z m-575 0 c1 -17 1
-17 14 0 18 23 26 22 26 -5 0 -19 2 -20 10 -8 5 8 20 15 32 16 13 1 31 5 41 9
13 5 17 2 17 -11 0 -14 3 -15 8 -6 5 7 16 10 25 6 18 -7 20 -14 11 -38 -7 -18
-34 -22 -34 -5 0 8 -4 8 -13 1 -13 -11 -117 -9 -136 2 -6 4 -11 2 -11 -5 0
-10 -3 -10 -11 -2 -13 13 -4 63 11 63 6 0 10 -8 10 -17z m310 3 c0 -6 4 -6 8
2 5 7 16 10 25 6 21 -8 32 -43 18 -57 -8 -8 -11 -4 -12 14 -1 15 -3 18 -6 7
-6 -22 -34 -32 -45 -16 -4 7 -8 8 -8 3 0 -6 -9 -11 -20 -11 -11 0 -20 3 -20 7
0 4 -8 6 -17 5 -12 -1 -19 7 -20 24 -1 14 0 19 3 12 5 -10 9 -10 20 -1 11 9
14 8 14 -2 0 -10 4 -10 15 2 18 18 45 21 45 5z"/>
<path d="M1635 100 c-4 -6 -3 -16 3 -22 15 -15 56 -5 60 15 3 16 1 17 -16 8
-13 -7 -22 -7 -29 0 -8 8 -13 7 -18 -1z"/>
<path d="M1860 90 c0 -5 7 -10 16 -10 8 0 12 5 9 10 -3 6 -10 10 -16 10 -5 0
-9 -4 -9 -10z"/>
<path d="M1909 87 c7 -7 14 -8 21 -1 6 6 2 10 -12 11 -16 2 -18 -1 -9 -10z"/>
</g>
</svg>
